<svg width="50" height="40" viewBox="0 0 50 40" fill="none" xmlns="http://www.w3.org/2000/svg">
<path fill-rule="evenodd" clip-rule="evenodd" d="M6.00006 40V33.7708C2.72258 32.709 0.352661 29.6314 0.352661 26.0002C0.352661 22.3689 2.72258 19.2913 6.00006 18.2295V0H11.0001L11.0001 18.2171C14.2975 19.2672 16.686 22.3547 16.686 26.0002C16.686 29.6456 14.2975 32.7331 11.0001 33.7832V40H6.00006ZM5.35266 26.0002C5.35266 27.749 6.77042 29.1668 8.51932 29.1668C10.2682 29.1668 11.686 27.749 11.686 26.0002C11.686 24.2513 10.2682 22.8335 8.51932 22.8335C6.77042 22.8335 5.35266 24.2513 5.35266 26.0002ZM38.0001 40V33.6548C34.8965 32.4977 32.686 29.507 32.686 26.0002C32.686 22.4933 34.8965 19.5026 38.0001 18.3455V0H43.0001L43.0001 18.1187C46.4686 19.0616 49.0193 22.233 49.0193 26.0002C49.0193 29.7673 46.4686 32.9387 43.0001 33.8816V40H38.0001ZM37.686 26.0002C37.686 27.749 39.1038 29.1668 40.8527 29.1668C42.6016 29.1668 44.0193 27.749 44.0193 26.0002C44.0193 24.2513 42.6016 22.8335 40.8527 22.8335C39.1038 22.8335 37.686 24.2513 37.686 26.0002ZM22.0001 21.7708V40H27.0001V21.7833C30.2975 20.7332 32.6861 17.6456 32.6861 14.0002C32.6861 10.3547 30.2975 7.26711 27.0001 6.21705V0H22.0001V6.2295C18.7226 7.29134 16.3528 10.369 16.3528 14.0002C16.3528 17.6313 18.7226 20.709 22.0001 21.7708ZM24.5194 17.1668C22.7705 17.1668 21.3528 15.749 21.3528 14.0002C21.3528 12.2513 22.7705 10.8335 24.5194 10.8335C26.2683 10.8335 27.6861 12.2513 27.6861 14.0002C27.6861 15.749 26.2683 17.1668 24.5194 17.1668Z" fill="black"/>
</svg>
